<svg width="51" height="19" viewBox="0 0 51 19" fill="none" xmlns="http://www.w3.org/2000/svg">
<path d="M16.2794 0.0822897C15.5127 0.168273 14.7532 0.605352 14.4021 1.17857C14.137 1.60849 13.9722 2.2247 13.399 4.99765C12.7756 7.97839 12.7183 8.53011 12.9619 9.06034C13.0336 9.22514 13.1912 9.44009 13.313 9.54041C13.7501 9.913 13.8576 9.92017 16.9816 9.92017H19.8764L20.077 8.98868C20.1845 8.47279 20.2704 8.01421 20.2704 7.96406C20.2776 7.89957 19.7904 7.87807 18.0564 7.87807H15.828L15.656 7.70611C15.5629 7.61296 15.4626 7.45532 15.4411 7.36217C15.3838 7.13289 16.1576 3.192 16.3367 2.80508C16.609 2.2247 16.6377 2.21753 19.1742 2.21753H21.4026L21.596 1.22873C21.7035 0.691336 21.811 0.189769 21.8325 0.118116C21.8683 -0.0108585 21.7608 -0.0108585 19.296 0.0106373C17.8844 0.0249681 16.5302 0.0536289 16.2794 0.0822897Z" fill="black"/>
<path d="M25.9812 0.318984C25.8236 0.584098 24.8061 2.47572 22.0475 7.62753C21.4599 8.73098 20.944 9.66246 20.9154 9.70545C20.8796 9.74128 20.8509 9.81293 20.8509 9.86309C20.8509 9.93474 21.116 9.95624 22.0618 9.95624H23.2656L23.7886 9.02475L24.3117 8.09327H26.189H28.0663L28.1523 8.85995C28.2956 10.0924 28.1164 9.95624 29.571 9.95624H30.8177L30.7748 9.71978C30.7533 9.59797 30.524 7.89265 30.266 5.9437C30.0081 3.99475 29.7286 1.87384 29.6426 1.23614L29.485 0.075366L27.8155 0.0538702L26.146 0.0323744L25.9812 0.318984ZM27.6149 4.21688L27.8442 6.087H26.5616H25.279L25.6373 5.42064C25.8307 5.06238 26.2893 4.20255 26.6547 3.52185C27.0202 2.84115 27.3283 2.29659 27.3426 2.31092C27.3641 2.32525 27.4787 3.18508 27.6149 4.21688Z" fill="black"/>
<path d="M6.26243 0.168378C5.60322 0.376169 5.13748 0.84191 4.77205 1.64442C4.60009 2.03134 4.15584 4.03044 4.15584 4.41737C4.15584 4.99059 4.49978 5.52798 5.04433 5.82175C5.32378 5.97222 5.45275 5.97939 7.36587 6.01521C9.05687 6.04388 9.4008 6.06537 9.46529 6.15852C9.55844 6.29466 9.48678 7.09 9.34348 7.43393C9.15002 7.92117 9.21451 7.914 6.2266 7.9355L3.53247 7.95699L3.33901 8.90281C3.23869 9.42587 3.15271 9.87011 3.15271 9.89878C3.15271 9.98476 8.99238 9.97043 9.48678 9.88444C10.275 9.75547 10.927 9.31839 11.2781 8.67352C11.536 8.18628 11.8943 6.7819 11.9445 6.00805C12.009 5.0909 11.8083 4.62516 11.2279 4.28839C10.9342 4.12359 10.8697 4.11643 8.94939 4.0806C7.09359 4.04477 6.95745 4.03761 6.80698 3.90147C6.66368 3.77249 6.64935 3.70801 6.69234 3.34975C6.7425 2.83385 6.92163 2.38244 7.12225 2.26779C7.22973 2.20331 7.95342 2.17464 9.70891 2.16031L12.1451 2.14598L12.3386 1.15718C12.446 0.619788 12.532 0.154047 12.532 0.118221C12.5392 0.0895596 11.1921 0.0680647 9.55127 0.0752296C7.32288 0.0752296 6.47738 0.10389 6.26243 0.168378Z" fill="black"/>
<path d="M33.8343 0.404655C33.7411 0.820239 33.2324 3.24209 32.4586 6.94652C32.1433 8.46555 31.8639 9.76246 31.8424 9.83411C31.8065 9.94876 31.8854 9.95592 33.0103 9.94159L34.2141 9.9201L34.4433 8.702C34.5723 8.02847 34.7443 7.18297 34.8231 6.81755L34.9736 6.15834H36.9655H38.9574L39.1151 5.34867C39.2011 4.91159 39.2942 4.47451 39.3157 4.38136L39.3515 4.22373H37.3668C35.511 4.22373 35.3892 4.21656 35.425 4.09475C35.4608 3.99444 35.8262 2.21746 35.8262 2.1673C35.8262 2.15297 36.8867 2.14581 38.1836 2.14581H40.5338L40.7273 1.19283C40.8276 0.676934 40.9136 0.204028 40.9136 0.153872C40.9136 0.0893841 40.1612 0.0678883 37.4098 0.0678883H33.9059L33.8343 0.404655Z" fill="black"/>
<path d="M42.2033 0.0966816C42.2033 0.175499 40.2042 9.68378 40.1684 9.78409C40.1397 9.87007 41.0784 9.95605 42.0027 9.95605C42.3968 9.95605 42.4899 9.93456 42.5186 9.82708C42.5616 9.69094 43.2781 6.25162 43.2781 6.1943C43.2781 6.17281 44.1666 6.15848 45.2485 6.15848C46.3305 6.15848 47.219 6.14415 47.219 6.12982C47.219 6.11548 47.2978 5.71423 47.3981 5.22699C47.4984 4.73976 47.5772 4.31701 47.5772 4.28835C47.5772 4.25252 46.7031 4.22386 45.6426 4.22386H43.708L43.7438 4.05906C43.8155 3.72946 44.1379 2.20326 44.1379 2.1746C44.1379 2.16027 45.2055 2.13878 46.5168 2.13161L48.8885 2.11011L49.0891 1.14281C49.2037 0.612579 49.2897 0.154004 49.2969 0.118177C49.2969 0.0895166 47.699 0.0680208 45.7501 0.0680208C43.8011 0.0680208 42.2033 0.0823517 42.2033 0.0966816Z" fill="black"/>
<path d="M2.29288 14.3058C1.76265 15.2803 1.03896 16.6417 0.666367 17.3152C0.30094 17.9959 0 18.5691 0 18.5906C0 18.6121 0.329601 18.6265 0.73802 18.6265H1.46887L1.74115 18.1249C1.89162 17.8526 2.04209 17.609 2.07792 17.5875C2.12091 17.566 2.64397 17.5373 3.25302 17.5302L4.36363 17.5159L4.39946 17.7308C4.42095 17.8455 4.45678 18.0962 4.48544 18.2825L4.52843 18.6265H5.27362C5.68204 18.6265 6.0188 18.5978 6.0188 18.5691C6.0188 18.5333 5.92565 17.8455 5.80385 17.0429C5.6892 16.2404 5.51007 14.922 5.40976 14.1195C5.30944 13.317 5.20913 12.6363 5.1948 12.6077C5.18047 12.579 4.72906 12.5503 4.206 12.5432L3.23869 12.5288L2.29288 14.3058ZM4.07702 14.7716C4.12001 15.2158 4.17734 15.7317 4.206 15.918L4.24899 16.2619H3.47514C3.04523 16.2619 2.72279 16.2333 2.73712 16.1974C2.80877 15.9897 3.90506 13.9691 3.94805 13.9691C3.96954 13.9691 4.02687 14.3345 4.07702 14.7716Z" fill="black"/>
<path d="M8.70576 12.6003C8.04656 12.7651 7.6883 13.1806 7.45185 14.0548C7.22972 14.8501 7.22256 15.4663 7.42318 15.7386C7.68113 16.0826 7.82444 16.1184 9.06403 16.1184C9.69457 16.1184 10.2535 16.147 10.3108 16.1829C10.4398 16.2689 10.4254 16.7489 10.2893 17.0857C10.232 17.2218 10.1746 17.3436 10.1603 17.3508C10.146 17.358 9.40079 17.3866 8.49081 17.4081L6.8428 17.444L6.76398 17.8022C6.72099 17.9957 6.66367 18.268 6.64217 18.3898L6.59918 18.6262H8.40482C10.4111 18.6262 10.755 18.5761 11.1491 18.2106C11.4715 17.9169 11.5934 17.6446 11.7582 16.8492C11.9874 15.7673 11.8585 15.2586 11.3139 15.0651C11.1706 15.0149 10.626 14.9791 9.95252 14.9791C8.97804 14.9719 8.82041 14.9576 8.78458 14.8573C8.72726 14.7068 8.80608 14.2769 8.93505 14.019L9.03536 13.8255H10.5616H12.0878L12.1737 13.3741C12.2167 13.1305 12.2741 12.8439 12.3027 12.7292L12.3385 12.5358L10.6332 12.5429C9.6874 12.5501 8.82757 12.5716 8.70576 12.6003Z" fill="black"/>
<path d="M14.438 12.6002C13.8289 12.7506 13.4706 13.1089 13.2629 13.7824C12.9333 14.8572 12.8974 15.4806 13.1625 15.7815C13.4133 16.061 13.6999 16.1183 14.7962 16.1183C15.3838 16.1183 15.9068 16.1541 15.9856 16.19C16.0788 16.2473 16.1218 16.3404 16.1218 16.5196C16.1218 16.799 15.9498 17.2647 15.8137 17.3507C15.7635 17.3794 15.0327 17.408 14.18 17.408H12.6323L12.5463 17.8523C12.4962 18.1031 12.4389 18.3754 12.4174 18.4685L12.3815 18.6333L14.3018 18.6118C16.1146 18.5903 16.2436 18.5831 16.5159 18.4327C17.0533 18.1461 17.2539 17.8165 17.4474 16.8993C17.5835 16.2544 17.5835 15.7385 17.4474 15.4734C17.2467 15.0865 16.9959 15.0149 15.6919 14.9719L14.5096 14.936L14.5168 14.5563C14.5239 14.3485 14.5813 14.1049 14.6457 14.0046L14.7604 13.8254L16.2794 13.8111L17.7985 13.7896L17.9274 13.2164C17.9919 12.9011 18.0564 12.6217 18.0564 12.5858C18.0564 12.5213 14.7246 12.5357 14.438 12.6002Z" fill="black"/>
<path d="M22.893 12.5715C22.8572 12.5858 22.7353 12.6145 22.6207 12.636C22.3198 12.7076 21.8898 13.1376 21.7107 13.5531C21.4814 14.0905 21.2808 15.1223 21.3525 15.4161C21.5101 16.0896 21.6319 16.1398 23.1796 16.1899C24.5482 16.2329 24.4908 16.1971 24.3977 16.8133C24.3117 17.4009 24.2974 17.408 22.5132 17.408H20.944L20.8294 17.9454C20.7577 18.2464 20.7076 18.5186 20.7076 18.5545C20.7076 18.6548 24.2472 18.6476 24.5983 18.5473C25.2432 18.3682 25.6086 17.795 25.8236 16.6055C25.9597 15.8747 25.8952 15.5236 25.5799 15.237C25.3435 15.0292 25.4223 15.0363 23.7313 15.0077C23.1151 15.0005 22.9001 14.9719 22.85 14.893C22.764 14.7641 22.8357 14.198 22.9718 13.983C23.0721 13.8254 23.1008 13.8254 24.5696 13.8254H26.0672L26.2105 13.2307C26.2821 12.9083 26.3323 12.6217 26.318 12.5858C26.2893 12.5357 23.0434 12.5213 22.893 12.5715Z" fill="black"/>
<path d="M27.1993 13.0445C27.013 13.89 26.9485 13.8255 27.9874 13.8255C28.8114 13.8255 28.8831 13.8327 28.8473 13.9473C28.8114 14.0906 27.8728 18.5402 27.8728 18.5904C27.8728 18.6119 28.1881 18.6262 28.575 18.6262H29.27L29.4277 17.8882C29.5136 17.4869 29.7358 16.4623 29.9149 15.6168C30.094 14.7713 30.2588 14.019 30.2803 13.9545C30.309 13.847 30.438 13.8255 31.2548 13.8112L32.2006 13.7897L32.3296 13.2165C32.3941 12.9012 32.4586 12.6217 32.4586 12.5859C32.4586 12.5573 31.2978 12.5358 29.8862 12.5358H27.3139L27.1993 13.0445Z" fill="black"/>
<path d="M34.1209 12.6217C34.0851 12.6719 33.4473 13.8398 32.7093 15.2227C31.9713 16.5985 31.2548 17.9312 31.1186 18.1748L30.8679 18.6262H31.6202H32.3726L32.7093 18.0673L33.0461 17.5156L34.128 17.5371C34.8016 17.5514 35.2315 17.5944 35.2602 17.6374C35.2888 17.6804 35.3318 17.924 35.3605 18.1676L35.4106 18.6262H36.163H36.9153L36.8652 18.139C36.8365 17.8739 36.6645 16.5125 36.4782 15.1153L36.1486 12.5716L35.1742 12.5501C34.4505 12.5358 34.1782 12.5573 34.1209 12.6217ZM35.0595 15.3445L35.1527 16.2617H34.3717H33.5907L33.7984 15.8819C33.9203 15.6813 34.1997 15.1582 34.4361 14.7283C34.8589 13.9545 34.8589 13.9473 34.9091 14.1909C34.9377 14.3271 35.0094 14.843 35.0595 15.3445Z" fill="black"/>
<path d="M38.9789 12.9299C38.936 13.1233 38.721 14.1264 38.5132 15.1511C38.2982 16.1757 38.0475 17.3795 37.9543 17.8165L37.7823 18.6262H38.4702H39.1581L39.545 16.8134C39.76 15.8246 39.9534 14.9648 39.9821 14.9146C40.0322 14.8215 40.3833 15.5595 41.322 17.7019L41.7232 18.6262H42.5186H43.3139L43.6149 17.2075C43.7797 16.4337 44.0663 15.1081 44.2454 14.2698C44.4245 13.4314 44.5678 12.7149 44.5678 12.6791C44.5678 12.6361 44.2669 12.6074 43.8656 12.6074H43.1634L42.7837 14.4489C42.5687 15.4663 42.3824 16.3405 42.3609 16.3978C42.3394 16.448 42.1675 16.1256 41.974 15.6813C41.7806 15.2299 41.3936 14.3557 41.1142 13.7395L40.6126 12.6217L40.0322 12.5788C39.0793 12.5071 39.0649 12.5143 38.9789 12.9299Z" fill="black"/>
<path d="M45.1769 12.6934C45.1554 12.7865 45.0981 13.0732 45.0407 13.3383L44.9404 13.8255H45.8934H46.8464L46.7819 14.0906C46.6314 14.7355 45.8576 18.4399 45.8576 18.5259C45.8576 18.6047 46.0081 18.6262 46.5598 18.6262H47.2691L47.4626 17.6732C47.785 16.1041 48.1576 14.3772 48.2293 14.0906L48.3009 13.8255H49.1823H50.0636L50.1782 13.2666C50.2427 12.9657 50.3 12.6719 50.3 12.6217C50.3 12.5573 49.7196 12.5358 47.7564 12.5358H45.2127L45.1769 12.6934Z" fill="black"/>
<path d="M19.2817 13.2665C19.1957 13.6248 18.9664 14.7139 18.773 15.6812C18.5723 16.6485 18.3502 17.709 18.2786 18.0386L18.1496 18.6333L18.8733 18.6118L19.597 18.5903L19.8979 17.1214C20.1702 15.803 20.7291 13.1877 20.8294 12.765C20.8652 12.6073 20.8581 12.6073 20.1487 12.6073H19.4322L19.2817 13.2665Z" fill="black"/>
</svg>
